# xmcd
#
# Track frame offsets:
# 150
# 19125
# 36785
# 56034
# 74804
# 94094
# 113954
# 130316
# 145841
# 165791
# 184569
# 204241
#
# Disc length: 2980 seconds
#
#
# Revision: 1
# Processed by: cddbd v1.5.2PL0 Copyright (c) Steve Scherf et al.
# Submitted via: FreeRIP 2.945 
#
DISCID=a50ba20c
DTITLE=Alejandro Fernández - A corazón abierto
DYEAR=2005
DGENRE=Balada
TTITLE0=01-Para vivir
TTITLE1=02-Me dedique a perderte
TTITLE2=Canta Corazón
TTITLE3=Que voy a hacer con mi amor
TTITLE4=Si alguna vez
TTITLE5=Que lástima
TTITLE6=Tengo ganas
TTITLE7=Se va
TTITLE8=Lo que pudo ser
TTITLE9=Me iré
TTITLE10=Dame un minuto
TTITLE11=Muy legos de ti
EXTD=Alejandro fernandez
EXTT0=
EXTT1=
EXTT2=
EXTT3=
EXTT4=
EXTT5=
EXTT6=
EXTT7=
EXTT8=
EXTT9=
EXTT10=
EXTT11=
PLAYORDER=
